# xmcd
#
# Track frame offsets: 
#        150
#        19736
#        36770
#        51247
#        66860
#        82704
#        100422
#        122602
#        136546
#        162885
#
# Disc length: 2369 seconds
#
# Revision: 0
# Processed by: cddbd v1.5.2PL0 Copyright (c) Steve Scherf et al.
# Submitted via: ExactAudioCopy v0.95b4
#
DISCID=74093f0a
DTITLE=Johnson County - Johnson County
DYEAR=2007
DGENRE=Crossover
TTITLE0=Jebediah Wilcox
TTITLE1=Good Country Lovin' Gone Bad
TTITLE2=Kiss my Ass Goodbye
TTITLE3=Jesus Drives a Ford
TTITLE4=Chimichanga
TTITLE5=Counterfeit Biscuits
TTITLE6=Give it Back
TTITLE7=Alcoholic
TTITLE8=Johnson County Blues
TTITLE9=Promised Land
EXTD=
EXTT0=
EXTT1=
EXTT2=
EXTT3=
EXTT4=
EXTT5=
EXTT6=
EXTT7=
EXTT8=
EXTT9=
PLAYORDER=
